<svg xmlns="http://www.w3.org/2000/svg" version="1.1" viewBox="0 0 3000 2031" width="3000" height="2031">
<defs/><!--ITEM: Illustration component 1--><g transform="translate(2660.9375 840.625) rotate(48.51031156504428 -539.0625 596.09375) translate(-228.125 0.0) scale(-1.8375585462131594 1.8382239566790122)"><svg width="462.5702956521739" height="245.65151507208387" viewBox="124.14570434782608 0.0 462.5702956521739 245.65151507208387"><path d="m115.3 645.49h441.267c21.4 0 35.976-19.1 27.881-36.544l-69.019-148.7c-34.329-73.966-116.066-122.298-206.822-122.298-123.392 0-223.421 88.062-223.421 196.691v84.336c-.001 14.644 13.483 26.515 30.114 26.515z" fill="#ff5e43"/><path d="m158.518 287.888h149.755v132.224h-149.755z" fill="#ff5e43" transform="matrix(-.96400729 .26587581 -.26587581 -.96400729 552.514 633.202)"/><ellipse cx="216.109" cy="290.969" fill="#403838" rx="75.074" ry="19.662" transform="matrix(.96400729 -.26587581 .26587581 .96400729 -69.585 67.933)"/><path d="m171.948 645.563c-.09-5.054.163-24.092 13.232-31.652 16.258-9.4 47.871 0 71.37 31.652z" fill="#f8a036"/><g fill="#ffe3c3"><path d="m247.365 569.133-22.765 76.357h-16.334l6.345-81.091c1.066-13.625 20.839-18.693 30.046-7.7a13.284 13.284 0 0 1 2.708 12.434z"/><path d="m217.192 644.545-2.4-71.93c-.161-4.829-4.282-8.84-9.724-9.465-7.524-.864-13.818 4.985-12.431 11.553l14.951 70.787h9.607z"/><path d="m251.721 575.85c-5.445-1.2-10.967 1.7-12.356 6.488l-18.325 63.152h9.633l27.948-57.39c2.479-5.084-.806-10.909-6.9-12.25z"/></g><path d="m508.208 446.26c-27.635 8.67-49.328 25.367-50.076 42.388-1.015 23.109 36.308 52.961 93.994 50.659q-17.679-42.156-39.8-85.145-2.046-3.967-4.118-7.902z" fill="#f8a036"/><path d="m465.851 394.9 1.689 34.932c.394 8.135-8.212 14.314-17.185 12.339-8.471-1.864-12.888-10.083-9.155-17.031l18.865-35.106z" fill="#ffe3c3"/><path d="m462.425 393.221-20.825 44.479c-4.266 9.11-16.8 12.667-26.308 7.465-10.559-5.778-11.517-18.99-1.879-25.9l43.858-31.46 5.511 4.516z" fill="#ffe3c3"/><path d="m458.669 391.8-31.629 21.452a13.648 13.648 0 0 1 -15.713-.477c-7.105-5.544-4.733-15.779 4.271-18.43l36.235-10.667 8.232 6.36z" fill="#ffe3c3"/><path d="m389.925 648.555a3.5 3.5 0 0 1 -1.36-.276c-11.238-4.742-17.353-10.551-18.7-17.759-2.213-11.877 9.654-23.33 19.189-32.533 3.485-3.364 8.631-8.331 9.463-10.5-.612-.286-2.161-.787-5.733-.98-5.642-.3-9.913-2.307-12.695-5.95-6.317-8.271-3.24-22.541-.264-36.342 1.9-8.819 4.507-20.9 1.3-22.743-4.648-2.676-10.443.449-19.512 5.77-9.929 5.825-22.284 13.075-37.04 10.222-16.662-3.22-24.744-16.944-31.874-29.052-6.167-10.471-11.493-19.515-20.918-21-12.9-2.037-23.6 11.695-35.988 27.594-12.976 16.653-27.685 35.528-48.547 38.088-27.652 3.395-57.73-21.966-91.949-77.526a3.5 3.5 0 0 1 5.96-3.671c32.181 52.251 60.828 77.228 85.136 74.249 17.979-2.206 31.146-19.1 43.879-35.443 13.178-16.911 25.635-32.883 42.6-30.206 12.689 2 19.384 13.371 25.859 24.365 6.69 11.362 13.609 23.11 27.17 25.732 12.162 2.351 22.792-3.885 32.169-9.388 9.327-5.472 18.137-10.642 26.548-5.8 7.63 4.393 5.043 16.392 2.047 30.285-2.518 11.678-5.372 24.913-1.016 30.618 1.5 1.967 3.959 3.016 7.51 3.208 4.78.258 10.474 1.109 12.084 5.429 1.957 5.248-3.617 10.627-11.331 18.073-8.327 8.037-18.691 18.04-17.168 26.214.866 4.651 5.757 8.887 14.536 12.591a3.5 3.5 0 0 1 -1.362 6.726z" fill="#ffc0f3"/><path d="m221.319 295.545a.874.874 0 0 1 -.869-.78 285.411 285.411 0 0 1 10.909-115.173 303.63 303.63 0 0 1 35.446-75.717.875.875 0 0 1 1.47.95 301.823 301.823 0 0 0 -35.243 75.28 283.669 283.669 0 0 0 -10.842 114.47.875.875 0 0 1 -.776.965c-.032.003-.064.005-.095.005z" fill="#403838"/><path d="m214.4 297.378a.875.875 0 0 1 -.834-.609c-8.5-26.686-22.475-51.812-41.528-74.682-19.986-23.989-44.91-44.74-74.083-61.676a.875.875 0 0 1 .879-1.514c29.35 17.039 54.432 37.923 74.549 62.07 19.2 23.044 33.278 48.369 41.85 75.271a.874.874 0 0 1 -.833 1.14z" fill="#403838"/><path d="m207.674 391c-.1 0-.208 0-.314-.013a3.5 3.5 0 0 1 -3.177-3.8 102.616 102.616 0 0 0 -.388-16.04c-.952-12.739-1.937-25.911 7.487-33.737 8.761-7.277 20.365-4.593 31.585-2 10.928 2.529 22.23 5.143 31.647-.653 9.89-6.086 15.438-19.884 16.491-41.011a3.5 3.5 0 0 1 6.995.354c-1.174 23.569-7.84 39.256-19.813 46.624-11.863 7.3-25.161 4.225-36.893 1.511-10.433-2.413-19.443-4.5-25.536.563-6.646 5.52-5.836 16.356-4.978 27.829a107.826 107.826 0 0 1 .38 17.182 3.5 3.5 0 0 1 -3.486 3.191z" fill="#ffc0f3"/><path d="m143.326 402.3a197.214 197.214 0 0 0 45.7-5.195 188.705 188.705 0 0 0 34.438-11.782 159.2 159.2 0 0 1 -29 2.719c-11.872.023-21.708-2.041-30.06-3.657-2.356 1.646-4.77 3.435-7.219 5.381a146.32 146.32 0 0 0 -13.859 12.534z" fill="#e54630"/><path d="m196.385 389.307c-3.424 0-6.864-.123-10.151-.4-11.327-.944-17.906-2.243-22.708-4.484a.875.875 0 0 1 .74-1.586c4.6 2.147 11.008 3.4 22.114 4.326 14.126 1.178 31.063-.434 36.766-2.662a.875.875 0 1 1 .637 1.63c-4.536 1.775-15.866 3.176-27.398 3.176z" fill="#403838"/><path d="m21.547 60.352c24.325-20.42 57.646-19.333 70.589 2.621a133.3 133.3 0 0 1 9.486 19.62c6.889 17.81 9.63 37.49 10.154 50.4l-35.595 29.493a178.567 178.567 0 0 1 -43.229-17.412 144.791 144.791 0 0 1 -20.33-14.128c-19.913-16.546-15.767-49.867 8.925-70.594z" fill="#ffe3c3"/><path d="m21.093 60.9c19.959-16.755 50.181-12.431 64.056 9.46a164.063 164.063 0 0 1 10.519 19.354 165.793 165.793 0 0 1 13.41 45.572l-30.608 25.693a178.935 178.935 0 0 1 -38.67-19.426 177.541 177.541 0 0 1 -19.775-15.277 43.2 43.2 0 0 1 1.068-65.376z" fill="#eacaac"/><path d="m78.977 162.26-.474-.172a176.7 176.7 0 0 1 -37.956-19.165 176.052 176.052 0 0 1 -19.426-15.043 42.862 42.862 0 0 1 -14.421-30.599.874.874 0 0 1 .841-.907.883.883 0 0 1 .908.841 41.124 41.124 0 0 0 13.843 29.359 174.29 174.29 0 0 0 19.231 14.894 174.953 174.953 0 0 0 37.107 18.8l29.025-24.364a162.721 162.721 0 0 0 -8.04-31.631.875.875 0 1 1 1.643-.6 164.418 164.418 0 0 1 8.2 32.46l.071.483z" fill="#403838"/><path d="m85.494 147.634-55.88-45.844a44.737 44.737 0 0 1 -16.449-32.57 57.327 57.327 0 0 1 1.041-14.182l.594-.012a54.607 54.607 0 0 1 22.291 4.057 43.268 43.268 0 0 1 20.294 17.733l37.863 62.453c3.162 5.214-5.031 12.24-9.754 8.365z" fill="#ddb797" fill-rule="evenodd"/><path d="m101.133 142.207h2.547a23.643 23.643 0 0 1 23.643 23.643v1.559a5.308 5.308 0 0 1 -5.308 5.308h-39.215a5.308 5.308 0 0 1 -5.308-5.308v-1.559a23.643 23.643 0 0 1 23.643-23.643z" fill="#9bb9af" transform="matrix(-.7659098 .64294804 -.64294804 -.7659098 282.081 212.223)"/><path d="m70.008 125.523-43.35-38.214a42.013 42.013 0 0 1 -14.581-35.769l.422.037a43.214 43.214 0 0 1 16.2 4.717 42.317 42.317 0 0 1 15.828 14.68l31.791 49.113a4.2 4.2 0 0 1 -6.31 5.436z" fill="#ffe3c3" fill-rule="evenodd"/><path d="m220.391 245.407a.781.781 0 0 1 -.083 0 .875.875 0 0 1 -.789-.953 184.4 184.4 0 0 0 -10.9-82.2 181.6 181.6 0 0 0 -29.52-50.953.875.875 0 0 1 1.353-1.11 183.319 183.319 0 0 1 29.8 51.444 186.157 186.157 0 0 1 11 82.987.873.873 0 0 1 -.861.785z" fill="#403838"/><path d="m192.125 128.367a21.984 21.984 0 0 1 -27.027-3.209l-29.969-29.984a31.264 31.264 0 0 1 -5.382-7.144c-1.151-2.116-.521-1.742-.072-3.8.485-2.219 2.423-3.824 4.475-5.139l37.929-25.14c.717.732 3.38-.2 4.785-.285 3.517-.206 6.1-2.034 8.149 4.813l16.228 43.445a21.983 21.983 0 0 1 -9.116 26.443z" fill="#ee2667"/><ellipse cx="155.981" cy="70.778" fill="#dd1b61" rx="31.527" ry="8.295" transform="matrix(.84655569 -.53230017 .53230017 .84655569 -13.741 93.889)"/><path d="m150.763 51.633h1.352a12.545 12.545 0 0 1 12.545 12.545v1.2a9.65 9.65 0 0 1 -9.65 9.65h-7.142a9.65 9.65 0 0 1 -9.65-9.65v-1.2a12.545 12.545 0 0 1 12.545-12.545z" fill="#cc125e" transform="matrix(.843 -.538 .538 .843 -10.295 91.373)"/><path d="m265.026 105.714a30.277 30.277 0 0 1 -15.48-34.138l15.967-64.761a12.241 12.241 0 0 1 16.336-5.571l56.59 27.809a12.241 12.241 0 0 1 5.571 16.336l-41.324 52.223a30.277 30.277 0 0 1 -37.66 8.102z" fill="#ee2667"/><ellipse cx="306.774" cy="21.244" fill="#dd1b61" rx="12.498" ry="42.206" transform="matrix(.42557398 -.90492364 .90492364 .42557398 156.994 289.81)"/></svg></g><!--ITEM: Illustration component 2--><g transform="translate(2359.375 1081.25) rotate(76.71885548350716 246.875 359.375)  scale(0.8264193071635281 0.8285293042889864)"><svg width="597.457" height="867.501" viewBox="0.0 0.0 597.457 867.501"><path d="m435.558 403.129c-17.55-2.03-28.73-47.29-35.56-88.08-5.46-41-8.07-87.54 8.11-94.64 42.48 84.68 35.98 169.74 27.45 182.72z" fill="#5b5c1a"/><path d="m435.558 403.129c8.53-12.98 15.03-98.04-27.45-182.72 16.48-7.34 48.92 35.73 55.74 85.05 7.98 49.15-10.38 99.841-28.29 97.67z" fill="#80862c"/><path d="m435.557 404.129a1 1 0 0 1 -.835-1.549c3.8-5.78 7.937-29.41 5.243-63.845a321.438 321.438 0 0 0 -32.751-117.877 1 1 0 0 1 1.788-.9 323.461 323.461 0 0 1 32.957 118.618c2.571 32.87-.948 58.074-5.565 65.1a1 1 0 0 1 -.837.453z" fill="#033a11"/><path d="m437.668 402.4c-1.46.96-3.65 1.07-6.62.25-18.77-5.33-75.42-42.171-120.21-76.16-41.97-31.93-61.76-66.11-35.7-72.69a34.8 34.8 0 0 1 5.94-.96c22.29-1.87 85.7 30.95 121.2 77.13 30.13 39.152 43.03 67.43 35.39 72.43z" fill="#5b5c1a"/><path d="m437.668 402.4-2.11.73c-20.93-30.7-74.139-122.538-160.42-149.33a34.8 34.8 0 0 1 5.94-.96c22.29-1.87 85.7 30.95 121.2 77.13 30.13 39.152 43.03 67.43 35.39 72.43z" fill="#80862c"/><path d="m592.954 867.5a4.5 4.5 0 0 1 -4.349-3.356c-60.359-229.368-116.263-408.8-192.912-538.978-84.267-143.112-188.13-216.528-326.866-231.042a4.5 4.5 0 1 1 .937-8.951c73.809 7.721 137.138 31.574 193.606 72.921 52.511 38.449 98.33 91.606 140.079 162.506 77.172 131.067 133.311 311.164 193.86 541.255a4.5 4.5 0 0 1 -4.355 5.646z" fill="#8e5740"/><path d="m187.108 119.219c-61.08-44.76-153.68-40.15-186.67-24.919 2.18-7.01 12.68-10.61 28.16-14.96 18.41-4.67 43.94-10.41 69.61-11.97 61.86-5.161 95.02 38.739 88.9 51.849z" fill="#80862c"/><path d="m187.108 119.219c-3.19 7.45-16.19 6.82-34.05 7.64-45.29.92-89.26 9.86-122.62-2.07-17.15-5.64-28.99-16.75-30.33-26.02a10.111 10.111 0 0 1 .33-4.47c32.99-15.23 125.59-19.84 186.67 24.92z" fill="#5b5c1a"/><path d="m184.218 122.809c-14.2 10.51-53.29-14.91-86.14-40.03-31.99-26.21-65.69-58.41-58.72-74.65 18.59-1.11 46.23 13.79 72.43 33.69 35.43 26.9 68.22 62.96 72.43 80.99z" fill="#5b5c1a"/><path d="m184.218 122.809c-4.21-18.03-37-54.09-72.43-80.99-26.2-19.9-53.84-34.8-72.43-33.69 7.01-16.62 60.13-7.34 98.8 24.03 39.4 30.441 60.63 80 46.06 90.65z" fill="#80862c"/><g fill="#033a11"><path d="m62.121 51.408a1 1 0 0 1 -.47-1.883c25.49-13.519 48.118-10.2 48.343-10.164a1 1 0 1 1 -.307 1.976c-.219-.034-22.225-3.238-47.1 9.955a.994.994 0 0 1 -.466.116z"/><path d="m441.806 358.122a1 1 0 0 1 -.992-.888c-4-35.543-26.127-69.091-44.292-78.125a1 1 0 0 1 .891-1.791c18.636 9.268 41.321 43.5 45.388 79.692a1 1 0 0 1 -.882 1.106 1.069 1.069 0 0 1 -.113.006z"/><path d="m175.8 126.191c-14.346 0-38.952-13.025-73.436-38.909a1 1 0 0 1 1.2-1.6c29.248 21.954 66.881 46.076 80.058 36.323a1 1 0 1 1 1.19 1.607 14.777 14.777 0 0 1 -9.012 2.579z"/><path d="m184.217 123.809a1 1 0 0 1 -.973-.772c-4.024-17.231-36.35-53.308-72.061-80.421-29.733-22.584-55.224-34.48-71.766-33.488a1 1 0 0 1 -.119-2c9.857-.589 32.464 3.031 73.1 33.892 36.638 27.817 68.615 63.642 72.8 81.559a1 1 0 0 1 -.975 1.227z"/></g></svg></g><!--ITEM: Illustration component 3--><g transform="translate(1871.875 1403.125) rotate(103.43846646466272 440.625 262.5) translate(0.0 0.0) scale(1.0720411663807892 1.0732136103927963)"><svg width="712.7174999999999" height="489.18499999999995" viewBox="0.0 0.0 712.7174999999999 489.18499999999995"><path d="m733.409 488.185h-375.474c-168.9-232.02-205.16-440.262-118.1-462.164 75.008-18.848 241.514 100.566 493.574 462.164z" fill="#7c7c29"/><path d="m571.04 489.186a1 1 0 0 1 -.877-.52c-42.8-78.139-99.983-179.152-162.8-267.442-69.9-98.249-132.988-160.4-187.509-184.716a1 1 0 1 1 .815-1.826c54.851 24.467 118.212 86.839 188.324 185.382 62.876 88.375 120.1 189.454 162.922 267.641a1 1 0 0 1 -.876 1.481z" fill="#05541a"/><path d="m822.03 488.185-346.146.068c-101.843-242.511-151.148-429.364-128.439-474.853 24.625-49.324 242.322 22.2 474.585 474.785z" fill="#4f4f19"/><path d="m748.351 489.186a1 1 0 0 1 -.924-.619c-31.983-77.381-96.812-183.467-169.188-276.847-81.399-105.02-159.334-178.84-219.451-207.85a1 1 0 1 1 .87-1.8c60.389 29.14 138.578 103.161 220.161 208.43 72.481 93.51 137.41 199.768 169.456 277.3a1 1 0 0 1 -.924 1.383z" fill="#033a11"/><path d="m534.865 488.185h-432.427q-18.594-30.066-32.814-57.133c-84.618-160.752-57.98-243.482 18.988-257.183 23.612-4.205 51.956-1.915 83.285 6.621 109.644 29.858 255.767 136.129 362.968 307.695z" fill="#7c7c29"/><path d="m258.789 489.185a1 1 0 0 1 -.983-.828c-11.821-67.948-42.316-136.351-85.867-192.608-40.583-52.423-87.928-88.341-129.9-98.546a1 1 0 0 1 .473-1.944c42.4 10.31 90.15 46.491 131.006 99.266 43.746 56.51 74.379 125.226 86.255 193.489a1 1 0 0 1 -.814 1.157 1.017 1.017 0 0 1 -.17.014z" fill="#033a11"/><path d="m253.46 463.548a1 1 0 0 1 -.3-1.956c27.733-8.606 57.067-29.391 80.479-57.025 25.989-30.676 41.905-66.913 44.817-102.036a1 1 0 0 1 1.993.165c-2.946 35.535-19.028 72.172-45.284 103.163-23.652 27.918-53.325 48.928-81.412 57.644a1.025 1.025 0 0 1 -.293.045z" fill="#033a11"/><path d="m666.862 102.591c-.065.152-.14.3-.2.454" fill="#eacaac"/><path d="m176.252 488.185h-84.507c-50.013 0-91.393-40.044-91.745-90.057-.581-83.284 112.928-7.44 176.252 90.057z" fill="#5b5c1a"/><path d="m124.34 489.185a1 1 0 0 1 -.859-.486c-18.581-31.035-58.34-87.672-115.862-118.292a1 1 0 1 1 .94-1.765c57.948 30.847 97.951 87.816 116.638 119.03a1 1 0 0 1 -.857 1.513z" fill="#05541a"/></svg></g><!--ITEM: Illustration component 4--><g transform="translate(1425.0 37.5) rotate(20.948942021657935 267.1875 233.59375) translate(0.0 0.0) scale(1.6180041663134184 1.6132165055248617)"><svg width="307.091298245614" height="289.6" viewBox="0.0 0.0 307.091298245614 289.6"><g fill="#2b2929"><path d="m162.821 25.577c-.117 0-.236-.024-.35-.076-.428-.194-.617-.697-.424-1.125 6.022-13.29 19.289-22.857 33.802-24.373.454-.04.885.291.934.758s-.29.885-.758.934c-13.923 1.454-26.652 10.632-32.429 23.383-.143.314-.451.5-.775.5z"/><path d="m293.145 173.041c-.446 0-.82-.348-.848-.799-1.613-26.801-3.473-50.884-9.909-74.205-7.401-26.814-20.328-48.735-37.381-63.393-20.068-17.248-46.554-24.176-69.124-18.08-10.271 2.773-19.434 8.034-26.498 15.214-.328.336-.867.339-1.201.01-.335-.329-.34-.867-.01-1.201 7.275-7.396 16.703-12.812 27.266-15.663 23.101-6.24 50.186.82 70.675 18.432 17.311 14.878 30.42 37.089 37.912 64.229 6.48 23.48 8.349 47.657 9.968 74.557.028.469-.329.871-.798.899-.017 0-.034 0-.052 0z"/><path d="m254.12 56.22-.031-.028c-24.2-24.21-59.706-39.151-98.998-38.364-35.775.717-67.894 14.334-90.877 35.755-15.187 11.025-32.977 45.571-37.012 55.504-5.193 12.783-9.317 25.987-12.664 39.367-7.18 28.709-10.343 58.229-14.446 87.535-.438 3.128.705 5.027 3.03 6.28 10.071 5.426 42.539 16.243 94.766 13.936 14.712.685 136.649.455 136.649.455 28.67-1.166 64.135-14.168 90.266-26.02 1.972-.894 4.081-1.964 4.987-3.93s.348-4.262-.232-6.348c-14.301-51.421-29.471-121.472-75.439-164.142z"/><ellipse cx="158.336" cy="151.879" rx="127.779" ry="131.684" transform="matrix(.99979963 -.02001759 .02001759 .99979963 -3.01 3.201)"/></g><circle cx="271.843" cy="171.857" fill="#dda094" r="30.065" transform="matrix(.35187432 -.93604725 .93604725 .35187432 15.322 365.843)"/><path d="m269.174 192.497c-.143-5.906-.925-11.667-2.276-17.243 1.145-5.282 1.716-10.773 1.603-16.412l-.191-9.534c-.886-44.231-37.462-79.37-81.693-78.483l-61.019 1.222c-44.231.886-79.369 37.461-78.483 81.692l.19 9.534c.055 2.795.275 5.585.659 8.354.386 2.758.945 5.451 1.633 8.088-1.189 5.885-1.748 11.945-1.598 18.129 1.262 52.125 44.228 93.367 112.87 91.708 68.641-1.66 109.569-44.93 108.307-97.055z" fill="#f7b4a3" fill-rule="evenodd"/><path d="m269.174 192.497c1.26 52.124-39.667 95.395-108.307 97.055 14.778-3.802 47.167-14.328 75.267-43.926 14.483-15.301 25.721-33.372 33.04-53.128z" fill="#dda094" fill-rule="evenodd"/><path d="m154.653 203.656c-.081-.017-.16-.043-.235-.08l-8.306-4.08c-2.821-1.396-4.184-4.656-3.195-7.644l2.898-8.674c.168-.504.713-.776 1.217-.608s.776.713.608 1.217l-2.898 8.674c-.686 2.074.259 4.337 2.217 5.307l8.306 4.08c.477.234.674.811.44 1.288-.192.392-.625.605-1.053.519z" fill="#403838"/><circle cx="43.445" cy="178.839" fill="#f7b4a3" r="30.065" transform="matrix(.70710678 -.70710678 .70710678 .70710678 -113.733 83.101)"/><path d="m53.635 104.521c-8.731 26.868 11.222 98.359 9.492 84.831-2.27-17.756 6.963-50.792 7.114-51.358 7.897-23.353 86.689-25.702 105.747-21.919 30.433 6.041 67.987 16.446 80.002 27.304s14.345-31.448-.182-51.222c-24.308-33.088-193.443-14.504-202.173 12.364z" fill="#dda094" fill-rule="evenodd"/><path d="m222.562 132.622c-.501 0-1.01-.063-1.517-.194-.171-.046-17.297-4.463-33.899-4.069-3.269.089-6.059-2.554-6.132-5.866-.072-3.313 2.554-6.059 5.866-6.131 18.346-.411 36.432 4.256 37.193 4.454 3.206.837 5.127 4.114 4.29 7.321-.704 2.698-3.138 4.485-5.802 4.485z" fill="#2b2929"/><path d="m80.343 135.766c-2.563 0-4.936-1.655-5.731-4.232-.978-3.166.797-6.525 3.964-7.503.751-.231 18.616-5.687 36.959-6.093h.136c3.252 0 5.924 2.6 5.995 5.867.073 3.313-2.553 6.059-5.865 6.132-16.687.368-33.517 5.509-33.686 5.562-.589.182-1.186.269-1.771.269z" fill="#2b2929"/><ellipse cx="202.557" cy="163.148" fill="#fff" rx="31.295" ry="17.31" transform="matrix(.9997559 -.02209407 .02209407 .9997559 -3.555 4.515)"/><path d="m195.909 154.37c-10.338.229-18.903 7.336-21.434 16.851 5.162 5.718 16.006 9.508 28.464 9.233 5.938-.131 11.47-1.169 16.165-2.863.008-.341.011-.682.003-1.026-.277-12.535-10.663-22.472-23.198-22.195z" fill="#2b2929"/><ellipse cx="100.853" cy="165.396" fill="#fff" rx="31.295" ry="17.31" transform="matrix(.9997559 -.02209407 .02209407 .9997559 -3.63 2.269)"/><path d="m94.205 156.617c-10.338.228-18.903 7.336-21.434 16.851 5.162 5.718 16.006 9.508 28.464 9.233 5.938-.131 11.47-1.169 16.165-2.863.008-.341.011-.682.003-1.026-.277-12.535-10.663-22.472-23.198-22.195z" fill="#2b2929"/><path d="m66.549 117.698c8.342-3.565 17.119-6.18 26.154-6.996 1.104-.1 2.006-.914 2.182-2.009.869-5.39 2.019-11.869 3.297-17.733.324-1.485 2.516-1.223 2.475.296-.131 4.84-.411 10.049-.494 13.652-.017.746.655 1.317 1.393 1.203 16.553-2.558 30.603-3.769 47.229-3.139 1.719.065 3.262-1.061 3.695-2.725 1.737-6.666 2.796-11.066 4.577-18.9 3.953 7.708 6.26 12.986 9.887 21.995.196.488.684.807 1.209.789 25.98-.922 49.081 1.699 73.75 9.541.703.223 1.447-.216 1.568-.943 2.186-13.15 3.152-28.65-3.324-40.122-3.929-6.958-7.38-9.785-14.059-14.172-30.292-19.9-69.358-20.759-105.15-15.05-21.672 3.457-44.24 9.772-59.244 25.789-16.561 17.68-21.797 46.261-16.688 69.522 2.712-11.333 10.94-16.465 21.542-20.995z" fill="#2b2929" fill-rule="evenodd"/><path d="m251.387 186.149c-1.676 13.534-6.344 28.33-17.307 36.441 10.836-2.566 21.799-5.179 31.68-10.316 9.88-5.136 18.724-13.145 22.551-23.602 3.286-8.979 2.629-18.906 1.073-28.34-3.912-23.725-13.3-46.53-27.224-66.133-3.311-4.661-12.549-23.795-18.409-16.077-2.857 3.763 1.576 13.639 6.198 36.919 4.588 23.109 4.465 46.669 1.438 71.107z" fill="#2b2929" fill-rule="evenodd"/><path d="m65.641 189.458c2.481 13.41 6.861 27.856 18.288 35.299-10.97-1.915-22.07-3.869-32.239-8.407s-19.475-12.004-23.919-22.214c-3.816-8.767-3.752-18.715-2.762-28.225 2.489-23.916 10.499-47.241 23.23-67.639 3.027-4.85 12.115-15.566 18.425-8.211 3.076 3.585-3.46 20.603-4.015 25.283-2.906 24.499-1.487 49.901 2.993 74.114z" fill="#2b2929" fill-rule="evenodd"/><path d="m162.167 224.551c-11.702 2.321-21.758-2.628-20.471-4.098s39.982-9.149 39.982-9.149c.319-.072.638-.04.898.09.589.296.721 1.009.295 1.593-5.747 7.712-12.745 9.985-20.703 11.563z" fill="#fff"/></svg></g><!--ITEM: Illustration component 5--><g transform="translate(2150.0 1479.6875) rotate(112.5541858856731 286.71875 339.0625)  scale(1.3191690284704711 1.3215642253416822)"><svg width="434.696" height="513.123" viewBox="0.0 0.0 434.696 513.123"><path d="m315.843 262.536a1.671 1.671 0 0 1 -.54.09 3.705 3.705 0 0 1 -2.6-1.52c-5.88-6.63-18.57-34.59-27.41-58.55-7.29-19.86-7.54-36.15.47-37.04a8.532 8.532 0 0 1 3.63.48 15.04 15.04 0 0 1 2.51 1.09c8.99 4.73 25.25 32.8 27.55 59.16 1.88 21.36.17 35.08-3.61 36.29z" fill="#5b5c1a"/><path d="m315.843 262.536a1.671 1.671 0 0 1 -.54.09 3.705 3.705 0 0 1 -2.6-1.52c-5.88-6.63-18.57-34.59-27.41-58.55-7.29-19.86-7.54-36.15.47-37.04 4.38 26.75 16.06 66.24 30.08 97.02z" fill="#80862c"/><path d="m430.19 513.124a4.5 4.5 0 0 1 -4.438-3.791c-14.27-89.362-68.3-195.578-148.246-291.412-76.817-92.088-165.026-158.921-235.957-178.78a4.5 4.5 0 1 1 2.426-8.667c72.618 20.331 162.5 88.25 240.442 181.682 80.95 97.044 135.704 204.844 150.223 295.757a4.5 4.5 0 0 1 -3.734 5.154 4.6 4.6 0 0 1 -.716.057z" fill="#8e5740"/><path d="m58.674 22.1c35.841 20.829 46.618 33.594 44.2 37.8s-18.869 1.3-54.9-19.2c-35.834-20.83-48.302-30.687-44.197-37.8s18.874-1.3 54.897 19.2z" fill="#4f4f19"/><path d="m100.733 62.306c-8.75 2.5-40.25 1.791-66.35-.7-10.24-.98-19.03-3.08-25.17-5.84-9.52-4.29-12.62-10.19-4.71-16.05 8.38-6.22 41.58-8.76 66.99.83 1.68.63 3.3 1.27 4.86 1.9 22.3 9 32.43 17.5 24.38 19.86z" fill="#80862c"/><path d="m100.733 62.306c-8.75 2.5-40.25 1.791-66.35-.7-10.24-.98-19.03-3.08-25.17-5.84 11.66-10.46 34.28-15.99 67.14-13.32 22.3 9 32.43 17.5 24.38 19.86z" fill="#4f4f19"/><path d="m102.5 58.441a1 1 0 0 1 -.8-.4c-2.883-3.848-12.5-9.331-25.72-14.667-1.553-.628-3.165-1.264-4.837-1.892-12.525-4.726-25.48-6.007-34.143-6.249a1 1 0 0 1 .056-2c8.816.247 22.008 1.554 34.79 6.378 1.686.632 3.314 1.275 4.881 1.908 13.749 5.549 23.434 11.134 26.573 15.323a1 1 0 0 1 -.8 1.6z" fill="#033a11"/></svg></g><!--ITEM: Upload 6--><g transform="translate(2075.0 1523.4375) rotate(0.0 134.375 120.3125)  scale(1.6040275266044752 1.596365759322776)"><svg width="167.547" height="150.733" viewBox="0.0 0.0 167.547 150.733"><g>
	<path d="M3.517,22.248c31.36-8.32,143.469-42.966,162.235-4.353S50.512,142.025,29.083,150.358   S-7.075,25.058,3.517,22.248z" style="fill:#5B5C1A;"/>
	<path d="M7.478,102.815c-0.331,0-0.645-0.194-0.783-0.519c-0.184-0.432,0.018-0.931,0.45-1.114   c49.275-20.941,141.09-72.366,155.94-87.34c0.33-0.333,0.868-0.335,1.202-0.005c0.333,0.331,0.336,0.869,0.005,1.202   C149.346,30.111,57.211,81.751,7.81,102.746C7.702,102.792,7.589,102.815,7.478,102.815z" style="fill:#033A11;"/>
	<path d="M87.634,62.818c-0.252,0-0.502-0.112-0.67-0.326c-0.289-0.37-0.224-0.904,0.146-1.193   c10.62-8.31,14.869-51.71,11.22-59.697c-0.194-0.427-0.007-0.931,0.42-1.126s0.931-0.007,1.127,0.42   c4.026,8.813-0.541,52.997-11.719,61.742C88.001,62.759,87.817,62.818,87.634,62.818z" style="fill:#033A11;"/>
</g>
</svg></g><!--ITEM: Illustration component 7--><g transform="translate(809.375 1160.9375) rotate(-102.45934197969862 -303.125 357.8125)  scale(-1.3946528148407162 1.394646117987305)"><svg width="434.696" height="513.123" viewBox="0.0 0.0 434.696 513.123"><path d="m315.843 262.536a1.671 1.671 0 0 1 -.54.09 3.705 3.705 0 0 1 -2.6-1.52c-5.88-6.63-18.57-34.59-27.41-58.55-7.29-19.86-7.54-36.15.47-37.04a8.532 8.532 0 0 1 3.63.48 15.04 15.04 0 0 1 2.51 1.09c8.99 4.73 25.25 32.8 27.55 59.16 1.88 21.36.17 35.08-3.61 36.29z" fill="#5b5c1a"/><path d="m315.843 262.536a1.671 1.671 0 0 1 -.54.09 3.705 3.705 0 0 1 -2.6-1.52c-5.88-6.63-18.57-34.59-27.41-58.55-7.29-19.86-7.54-36.15.47-37.04 4.38 26.75 16.06 66.24 30.08 97.02z" fill="#80862c"/><path d="m430.19 513.124a4.5 4.5 0 0 1 -4.438-3.791c-14.27-89.362-68.3-195.578-148.246-291.412-76.817-92.088-165.026-158.921-235.957-178.78a4.5 4.5 0 1 1 2.426-8.667c72.618 20.331 162.5 88.25 240.442 181.682 80.95 97.044 135.704 204.844 150.223 295.757a4.5 4.5 0 0 1 -3.734 5.154 4.6 4.6 0 0 1 -.716.057z" fill="#8e5740"/><path d="m58.674 22.1c35.841 20.829 46.618 33.594 44.2 37.8s-18.869 1.3-54.9-19.2c-35.834-20.83-48.302-30.687-44.197-37.8s18.874-1.3 54.897 19.2z" fill="#4f4f19"/><path d="m100.733 62.306c-8.75 2.5-40.25 1.791-66.35-.7-10.24-.98-19.03-3.08-25.17-5.84-9.52-4.29-12.62-10.19-4.71-16.05 8.38-6.22 41.58-8.76 66.99.83 1.68.63 3.3 1.27 4.86 1.9 22.3 9 32.43 17.5 24.38 19.86z" fill="#80862c"/><path d="m100.733 62.306c-8.75 2.5-40.25 1.791-66.35-.7-10.24-.98-19.03-3.08-25.17-5.84 11.66-10.46 34.28-15.99 67.14-13.32 22.3 9 32.43 17.5 24.38 19.86z" fill="#4f4f19"/><path d="m102.5 58.441a1 1 0 0 1 -.8-.4c-2.883-3.848-12.5-9.331-25.72-14.667-1.553-.628-3.165-1.264-4.837-1.892-12.525-4.726-25.48-6.007-34.143-6.249a1 1 0 0 1 .056-2c8.816.247 22.008 1.554 34.79 6.378 1.686.632 3.314 1.275 4.881 1.908 13.749 5.549 23.434 11.134 26.573 15.323a1 1 0 0 1 -.8 1.6z" fill="#033a11"/></svg></g><!--ITEM: Illustration component 8--><g transform="translate(46.875 1696.875) rotate(0.0 273.4375 135.15625)  scale(1.6064195093866305 1.600315548924884)"><svg width="340.431" height="168.912" viewBox="0.0 0.0 340.431 168.912"><path d="m339.581 151.02c-.211 0-.423-.078-.588-.235-27.786-26.572-95.716-57.016-135.614-65.475-43.157-9.149-85.313-8.284-121.907 2.503-.454.131-.923-.126-1.056-.575-.133-.45.125-.923.575-1.056 36.864-10.866 79.306-11.743 122.741-2.534 40.116 8.505 108.453 39.147 136.437 65.908.339.324.351.862.026 1.202-.167.174-.391.262-.614.262z" fill="#004214"/><g fill="#ffdc83"><path d="m89.966 87.607c2.3-8.412-86.366-29.971-89.868-6.078s87.806 13.62 89.868 6.079z"/><path d="m89.882 84.501c-3.719-7.888-85.117 33.353-72.25 53.788s75.585-46.716 72.25-53.788z"/><path d="m90.434 83.705c-7.408-4.601-53.337 74.246-31.433 84.411 21.905 10.165 38.074-80.286 31.433-84.411z"/></g><path d="m143.954 78.997c-.083 0-.167-.013-.25-.038-35.308-10.879-70.803-30.52-102.648-56.798-.362-.299-.413-.834-.114-1.196.301-.363.838-.411 1.196-.114 31.676 26.138 66.97 45.67 102.066 56.483.449.139.7.614.563 1.063-.112.365-.449.601-.813.601z" fill="#004214"/><path d="m18.735.999c-3.702 4.569 25.34 45.305 34.43 28.828 9.09-16.476-30.021-34.269-34.43-28.828z" fill="#ffdc83"/><path d="m37.229 28.142c0 .335.025.664.05.992 6.249 5.001 12.473 6.879 15.886.693 2.789-5.056 1.03-10.232-2.862-14.827-7.227.038-13.074 5.905-13.074 13.141z" fill="#05541a"/></svg></g><!--ITEM: Illustration component 9--><g transform="translate(267.1875 1032.8125) rotate(0.0 264.0625 459.375)  scale(1.6027440495519145 1.6061529424721905)"><svg width="329.513" height="572.019" viewBox="0.0 0.0 329.513 572.019"><path d="m51.159 18.461c-38.63 117.338 130.742 412.73 176.288 487.851l79.741-252.557c-88.444-124.876-230.229-313.66-256.029-235.294z" fill="#4f4f19"/><path d="m11.488 221.98c-63.036 64.181 151.851 310.93 195.999 346.743.067.054.139.098.207.152l49.744-157.549c-73.632-93.196-199.92-236.212-245.95-189.346z" fill="#4f4f19"/><path d="m11.488 221.98c-1.742 1.774-3.26 3.696-4.588 5.74 60.952-1.655 178.099 138.259 239.64 218.118l10.897-34.512c-73.631-93.196-199.919-236.212-245.949-189.346z" fill="#5b5c1a"/><g fill="#033a11"><path d="m239.033 470.469c-.26 0-.516-.118-.683-.342-57.76-77.494-163.115-209.254-216.627-254.621-.358-.304-.402-.84-.099-1.198s.84-.401 1.198-.099c53.62 45.459 159.084 177.346 216.891 254.902.28.376.203.909-.174 1.189-.152.113-.33.168-.507.168z"/><path d="m181.248 395.897c-.055 0-.11-.006-.166-.017-45.772-9.044-89.981-10.261-121.287-3.339-.453.103-.912-.188-1.014-.646s.188-.912.646-1.014c31.527-6.969 75.988-5.755 121.984 3.331.46.091.76.538.669.999-.08.404-.436.686-.833.686z"/><path d="m264.134 388.115c-.268 0-.53-.125-.696-.36-46.81-66.496-93.647-140.82-128.503-203.917-44.405-80.383-69.705-142.859-73.165-180.672-.043-.467.302-.881.77-.924.465-.023.881.302.924.77 8.112 88.662 130.391 282.944 201.364 383.765.27.384.178.914-.206 1.185-.148.104-.319.154-.488.154z"/><path d="m121.86 158.305c-.07 0-.142-.009-.212-.027-30.294-7.773-55.465-21.309-69.059-37.135-.306-.356-.266-.893.091-1.198.354-.306.892-.267 1.198.091 13.372 15.567 38.228 28.906 68.191 36.596.455.116.729.58.612 1.034-.099.384-.444.64-.822.64z"/></g><path d="m.595 424.285c-12.516 42.965 176.189 133.446 206.105 147.733l33.499-106.097c-71.61-26.394-229.373-76.758-239.604-41.636z" fill="#7c7c29"/><path d="m227.628 505.297c-.125 0-.252-.028-.372-.087-75.407-36.876-177.367-75.86-226.339-79.02-.469-.03-.824-.435-.794-.903s.432-.833.903-.794c49.193 3.175 151.42 42.241 226.976 79.189.422.206.597.716.391 1.137-.147.302-.45.478-.765.478z" fill="#033a11"/><path d="m329.251 182.791c-29.966-26.191-163.643-174.436-200.062-146.676s70.449 196.386 129.641 274.555c2.892 3.819 14.291 17.026 22.589 24.698l48.093-152.321c-.089-.082-.172-.177-.262-.256z" fill="#80862c"/><path d="m241.15 155.45c-26.957 0-59.299-5.48-91.134-15.448-.448-.141-.697-.617-.558-1.065.141-.446.614-.697 1.065-.558 31.673 9.917 63.838 15.371 90.626 15.371h.436c.469 0 .849.379.85.848 0 .47-.378.851-.848.852-.146 0-.292 0-.438 0z" fill="#033a11"/><path d="m203.498 104.07c-.021 0-.041 0-.062-.002-.468-.033-.82-.439-.787-.908 1.093-15.402-.006-28.795-3.179-38.729-.143-.447.104-.926.551-1.068.448-.144.926.104 1.068.551 3.284 10.284 4.379 23.529 3.255 39.368-.031.447-.404.789-.847.789z" fill="#033a11"/><path d="m307.189 252.043c-.278 0-.551-.137-.714-.388-29.604-45.537-129.371-195.833-170.193-217.936-.413-.223-.566-.739-.343-1.151.223-.413.74-.568 1.151-.343 41.176 22.293 141.15 172.881 170.811 218.504.256.394.144.92-.25 1.176-.143.093-.304.138-.462.138z" fill="#033a11"/></svg></g><!--ITEM: Illustration component 10--><g transform="translate(650.0 271.875) rotate(0.0 831.25 549.21875)  scale(1.6070270338195818 1.6064711491492603)"><svg width="1034.519" height="683.758" viewBox="0.0 0.0 1034.519 683.758"><path d="m616.887 161.917c-95.871-15.016-174.316-4.884-264.88 15.091-69.847 15.406-151.023 48.721-183.167 83.969-27.991 2.233-58.208 10.577-87.759 26.559-67.946 36.746-94.006 111.081-75.08 162.608s66.452 50.589 108.986 50.589c75.487 0 103.667-6.69 133.331-17.374-17.782 42.817-25.393 82.532-9.085 112.35 61.457 112.374 461.147 96.453 523.16 64.83 27.521-14.035 49.251-98.87 51.196-184.055 64.788-19.952 108.278-54.494 115.256-99.047 14.071-89.84-125.596-186.332-311.957-215.521z" fill="#f8a036" fill-rule="evenodd"/><path d="m224.964 443.161c0 44.886-36.941 46.32-98.769 46.32-54.362 0-101.165-1.433-101.165-46.32 0-44.886 46.804-81.274 101.165-81.274 54.362 0 98.769 36.388 98.769 81.274z" fill="#ef8d22" fill-rule="evenodd"/><ellipse cx="114.284" cy="342.141" fill="#f7b4a3" rx="20.96" ry="27.724"/><path d="m137.906 327.969c5.587 11.077 10.386 26.367 12.807 50.264 1.289 12.728 18.41 18.847 26.519 11.521 31.354-28.327 45.98-36.519 54.117-30.73 8.136 5.789-7.912 41.7-13.535 56.174-6.539 16.832-14.786 55.085-48.015 70.815-23.706 11.222-78.59 11.345-98.401-7.109-21.014-19.574-28.641-34.103-41.424-55.599 6.831-17.277 19.64-69.868 34.243-63.039 13.922 6.511 34.093 37.247 38.03 35.214 3.502-1.808 5.173-16.373 3.164-30.436-1.588-11.116-1.523-50.626 8.873-50.626 14.481 0 19.551 5.48 23.622 13.552z" fill="#f7b4a3" fill-rule="evenodd"/><path d="m139.592 449.799c-.074 0-.149-.01-.225-.031-.453-.124-.72-.592-.595-1.044 5.933-21.628 18.389-41.792 35.075-56.778.351-.313.888-.284 1.201.064.313.35.284.887-.064 1.201-16.447 14.771-28.726 34.646-34.573 55.962-.104.378-.445.626-.819.626z" fill="#403838"/><path d="m114.285 370.715c-3.125 0-6.143-.846-8.968-2.513-.404-.239-.539-.76-.301-1.164.239-.405.761-.54 1.164-.301 2.561 1.512 5.287 2.278 8.104 2.278 11.089 0 20.11-12.057 20.11-26.875 0-3.55 0-6.903-.258-9.985-.039-.469.308-.879.775-.918.479-.035.879.309.918.775.264 3.154.264 6.542.264 10.128 0 15.756-9.783 28.574-21.81 28.574z" fill="#403838"/><path d="m112.424 362.281c-2.433 0-4.775-.918-6.854-2.7-4.285-3.675-6.526-10.039-6.526-14.427 0-2.393 2.042-4.308 5.907-5.538 6.8-2.162 17.337-1.65 19.945 2.033 1.633 2.306 1.525 6.236-.287 10.514-1.747 4.124-5.592 9.218-10.677 10.001-.506.078-1.009.117-1.509.117zm1.439-22.232c-2.845 0-5.857.379-8.396 1.188-1.764.562-4.724 1.817-4.724 3.918 0 3.901 2.08 9.831 5.935 13.137 2.146 1.84 4.497 2.576 6.995 2.193 4.394-.678 7.795-5.264 9.371-8.984 1.534-3.62 1.717-7.101.466-8.868-1.176-1.659-5.206-2.583-9.646-2.583z" fill="#403838"/><ellipse cx="61.858" cy="399.958" fill="#f7b4a3" rx="23.15" ry="41.861" transform="matrix(.9370506 -.3491936 .3491936 .9370506 -135.767 46.776)"/><ellipse cx="38.525" cy="432.072" fill="#f7b4a3" rx="20.96" ry="31.301" transform="matrix(.76918769 -.63902292 .63902292 .76918769 -267.21 124.344)"/><g fill="#403838"><path d="m71.233 440.994c-11.993 0-24.499-13.799-33.716-37.83-.168-.438.051-.931.489-1.099.44-.167.931.052 1.099.489 10.276 26.795 24.477 40.53 37.073 35.833 11.522-4.294 14.473-25.026 6.575-46.217-2.399-6.44-4.659-12.503-7.211-17.612-.209-.42-.039-.931.381-1.141.422-.212.931-.038 1.141.381 2.592 5.19 4.866 11.295 7.275 17.757 8.231 22.09 4.833 43.804-7.567 48.426-1.824.68-3.676 1.013-5.539 1.013z"/><path d="m49.424 460.44c-.445 0-.819-.346-.848-.797-.029-.469.327-.872.796-.901 3.374-.21 6.271-1.303 8.611-3.247 4.081-3.391 5.942-8.995 5.239-15.781-.048-.468.291-.885.758-.934.48-.049.885.292.934.758.763 7.369-1.313 13.5-5.845 17.265-2.623 2.18-5.851 3.403-9.592 3.637-.018 0-.036 0-.054 0z"/><path d="m68.847 433.257c-3.094 0-6.063-1.488-8.182-2.9-4.542-3.026-8.434-7.878-8.86-11.045-.547-4.056 5.159-8.706 11.079-11.203 5.727-2.414 10.309-2.368 12.259.122 3.439 4.394 4.518 11.825 2.563 17.672-1.255 3.757-3.581 6.264-6.549 7.058-.77.206-1.544.297-2.31.297zm1.489-25.225c-1.847 0-4.204.552-6.791 1.643-5.908 2.492-10.419 6.713-10.055 9.41.317 2.359 3.655 6.883 8.117 9.856 3.323 2.214 6.557 3.06 9.109 2.376 2.398-.642 4.308-2.756 5.376-5.954 1.787-5.344.824-12.108-2.288-16.084-.652-.834-1.87-1.247-3.469-1.247z"/><path d="m47.717 454.929c-.434 0-.879-.019-1.335-.055-5.7-.457-11.683-3.578-13.694-6.206-2.045-2.673 2.566-9.285 5.953-12.825 2.059-2.149 7.193-6.906 10.452-4.634 3.343 2.329 7.357 8.816 7.774 14.402.22 2.936-.575 5.349-2.297 6.977-1.63 1.542-3.98 2.341-6.854 2.341zm-13.68-7.294c1.753 2.29 7.309 5.13 12.48 5.544 2.082.169 4.97-.013 6.885-1.825 1.356-1.283 1.952-3.173 1.77-5.615-.37-4.964-4.028-11.028-7.052-13.135-1.445-1.013-4.763.769-8.251 4.414-4.295 4.489-6.702 9.479-5.832 10.617z"/><path d="m238.941 270.299c-.098 0-.197-.018-.294-.053-20.563-7.581-44.859-10.478-70.264-8.387-.477.049-.879-.309-.917-.776-.039-.469.309-.879.776-.917 25.65-2.119 50.199.817 70.992 8.484.44.163.666.651.504 1.092-.127.344-.452.557-.798.557z"/><path d="m249.645 485.287c-.098 0-.196-.018-.293-.053-.44-.162-.667-.65-.505-1.091 32.824-89.389 72.397-153.625 117.621-190.925.361-.298.897-.246 1.196.114.299.362.248.898-.114 1.196-44.988 37.105-84.389 101.099-117.107 190.2-.126.344-.451.558-.798.558z"/><path d="m335.658 326.044c-.451 0-.826-.354-.848-.81-.512-10.853-.345-17.09 3.387-27.36.159-.442.648-.672 1.089-.509.441.16.669.647.509 1.089-3.627 9.982-3.787 16.079-3.287 26.7.022.469-.34.867-.809.889-.014 0-.027 0-.041 0z"/></g><path d="m301.286 603.852c-18.449-11.35-47.021-38.936-70.502-36.083 1.067 10.02 3.771 19.389 8.448 27.941 27.191 49.718 120.593 74.32 221.664 83.562-28.554-8.437-56.215-19.712-82.968-32.752-26.298-12.819-51.732-27.343-76.642-42.667z" fill="#ef8d22" fill-rule="evenodd"/><path d="m698.749 211.042c2.471-13.032-10.39-27.516-32.509-39.597-16.018-3.688-32.49-6.887-49.352-9.528-39.654-6.211-76.324-8.109-112.106-6.799-8.004 4.247-13.108 9.777-14.367 16.415-4.349 22.931 38.763 50.365 96.293 61.275s107.692 1.165 112.041-21.766z" fill="#ef8d22" fill-rule="evenodd"/><path d="m785.408 172.703-32.284-53.298s-114.228 5.651-110.118 19.4c12.769 42.719 28.716 66.681 34.171 78.37 4.503 9.649 111.414-28.065 108.232-44.472z" fill="#f7b4a3" fill-rule="evenodd"/><path d="m764.185 137.665-6.18-10.202c-22.984 13.528-56.043 26.608-73.616 26.321-1.181-.019-2.315 2.778.582 2.866 40.008 1.205 64.145-17.643 79.213-18.984z" fill="#dda094" fill-rule="evenodd"/><path d="m656.526 155.312c21.594.284 95.404-.119 123.127-54.789 21.605-42.606 13.967-100.97 4.51-100.52-9.457.449-13.922 23.374-17.385 37.785 1.539-8.799-4.956-32.498-13.588-32.088s-14.261 30.487-21.117 57.536c-.654-10.863-4.975-25.067-12.134-24.726-11.426.543-16.032 35.52-26.576 49.548-10.339 13.754-42.925 17.755-49.335 39.108-2.757 9.183-1.15 27.966 12.498 28.146z" fill="#f7b4a3" fill-rule="evenodd"/><path d="m751.75 106.493c-.266 0-.526-.123-.692-.355-.273-.382-.185-.913.197-1.186 13.679-9.779 18.57-33.327 14.539-69.99-.052-.467.285-.887.752-.938.465-.048.887.284.938.752 4.104 37.319-1.023 61.396-15.24 71.559-.149.107-.322.158-.493.158z" fill="#403838"/><path d="m789.125 28.103c-2.75 0-5.707-.602-7.565-2.018-1.087-.828-1.697-1.89-1.765-3.071-.262-4.604 2.452-14.181 8.789-16.876.43-.183.931.018 1.115.449.184.433-.018.932-.449 1.115-5.447 2.316-7.982 11.267-7.758 15.216.039.688.398 1.282 1.098 1.814 2.172 1.655 6.682 1.996 9.623 1.366.465-.093.911.193 1.01.652s-.193.911-.652 1.01c-1.028.222-2.217.342-3.445.342z" fill="#403838"/><path d="m757.898 32.371c-2.081 0-4.114-.353-5.566-1.166-1.198-.671-1.916-1.628-2.073-2.768-.674-4.852 1.351-15.716 7.464-18.317.431-.183.932.017 1.115.449.184.432-.018.932-.449 1.115-5.038 2.144-7.065 12.054-6.446 16.52.084.608.483 1.105 1.221 1.518 2.535 1.422 7.729 1.114 10.507-.1.426-.185.931.008 1.119.439.188.43-.009.931-.439 1.119-1.698.742-4.105 1.19-6.451 1.19z" fill="#403838"/><path d="m724.437 65.406c-1.245 0-2.438-.173-3.401-.548-1.694-.659-2.677-1.901-2.764-3.497-.233-4.263 1.228-12.425 4.481-16.035 1.041-1.155 2.199-1.771 3.442-1.832.484-.041.869.338.891.807.023.47-.338.868-.807.891-.775.038-1.537.467-2.264 1.272-2.796 3.103-4.265 10.84-4.047 14.804.051.93.602 1.586 1.683 2.007 2.598 1.011 7.188.134 8.585-1.233.337-.328.875-.322 1.202.013.328.336.322.874-.013 1.202-1.372 1.342-4.301 2.15-6.989 2.15z" fill="#403838"/><path d="m643.395 142.377c-.404 0-.763-.29-.836-.702-.864-4.876-.613-10.528.654-14.753 3.907-13.011 17.423-19.83 29.349-25.846 8.245-4.16 16.032-8.089 20.121-13.529 4.272-5.683 7.586-14.964 10.791-23.938 4.702-13.166 9.143-25.602 16.425-25.947 7.107-.358 11.368 12.716 11.737 20.12 1.563 19.553-2.001 43.857-10.674 50.641-.371.288-.904.224-1.193-.146-.289-.369-.224-.903.146-1.193 8.222-6.43 11.554-30.061 10.024-49.191-.377-7.563-4.558-18.776-9.961-18.532-6.144.292-10.597 12.762-14.903 24.821-3.248 9.095-6.606 18.5-11.033 24.389-4.328 5.758-12.288 9.773-20.715 14.025-12.188 6.148-24.789 12.506-28.485 24.816-1.196 3.985-1.43 9.338-.609 13.968.082.462-.227.903-.688.985-.05.009-.101.014-.149.014z" fill="#403838"/><path d="m1029.922 379.913c-9.108-26.866-33.835-54.456-63.625-75.264-13.731-29.144-33.885-55.381-58.553-75.944-29.221-24.358-69.079-52.21-108.31-62.339l-5.685-10.378c-4.435-8.096-10.617-12.853-19.103-9.345-4.291 1.774-104.431 44.108-108.417 45.792-8.065 3.406-9.408 11.656-6.5 20.588l9.062 27.84.003.008c-11.521 36.464-10.698 76.26-3.57 114.24 10.33 55.045 38.468 64.011 56.337 65.169 22.166 54.979 87.014 70.863 109.142 74.821 44 7.87 85.722 3.559 132.807 3.559 61.627 0 80.94-75.897 66.414-118.749z" fill="#f8a036"/><path d="m820.306 492.944c-22.643-25.367-44.48-58.171-45.663-77.865-14.829 1.497-29.481 4.807-44.377 5.286-2.428.078-5.39.132-8.704-.083 19.334 47.957 71.14 66.167 98.745 72.662z" fill="#ef8d22"/><path d="m965.611 304.647c-.17 0-.342-.051-.491-.156-16.789-11.926-38.047-17.108-61.468-14.998-.462.038-.881-.303-.923-.771s.303-.881.771-.923c23.834-2.151 45.481 3.143 62.604 15.305.383.272.473.803.201 1.186-.166.233-.428.357-.694.357z" fill="#403838"/><path d="m726.057 421.3c-16.01 0-50.132-4.549-61.669-66.029-8.07-43.002-6.861-81.579 3.593-114.661.141-.447.618-.7 1.066-.555.448.142.696.619.555 1.066-10.369 32.813-11.562 71.112-3.544 113.835 12.429 66.225 51.376 64.972 64.181 64.56 9.022-.29 18.131-1.652 26.939-2.971 6.294-.941 12.802-1.915 19.254-2.496.466-.026.881.304.923.771.042.468-.303.881-.771.923-6.402.576-12.885 1.546-19.155 2.484-8.856 1.325-18.015 2.695-27.136 2.988-1.202.039-2.628.085-4.236.085z" fill="#403838"/><path d="m830.703 495.954c-.05 0-.1-.005-.15-.014-55.57-9.938-93.532-35.988-109.781-75.334-.18-.434.026-.931.461-1.109.429-.181.931.026 1.109.461 16.018 38.782 53.539 64.478 108.51 74.309.462.083.77.524.688.986-.074.412-.432.701-.836.701z" fill="#403838"/></svg></g><!--ITEM: Illustration component 11--><g transform="translate(562.5 796.875) rotate(0.0 814.0625 586.71875)  scale(1.6062685044598153 1.6052804020870441)"><svg width="1013.607" height="730.986" viewBox="0.0 0.0 1013.607 730.986"><path d="m1013.599 730.827-1013.549-.483 44.237-568.698 942.214.008z" fill="#494242"/><path d="m1013.607 730.986h-1013.607l5.249-67.483 1006.063 19.278z" fill="#eacaac"/><path d="m991.252 264.205-956.299 17.435 9.369-120.451h942.157z" fill="#f9e7d7"/><path d="m419.46 161.189h-136.676l7.614-47.781h129.062z" fill="#ffe3c3"/><path d="m918.53 161.189h-170.727l9.603-68.786 154.516 5.118z" fill="#eacaac"/><path d="m237.646 277.715-113.986 2.199-.448-59.05 115.607-.876z" fill="#eacaac"/><path d="m664.461 77.226h-205.505l19.329-77.066h33.276l48.803 8.818 49.849-8.818h29.494z" fill="#d1ae8b"/><path d="m717.698 123.295-107.485-123.295-98.652.16-124.949 113.303-28.127 156.455h381.693z" fill="#eacaac"/><path d="m247.179 161.189h-99.973l3.515-47.781h87.659z" fill="#ffe3c3"/><path d="m234.794 113.408h-79.704l4.922-17.342 64.956 1.525z" fill="#494242"/><g fill="#d1ae8b"><path d="m379.366 153.769 344.142 7.42-3.353-21.868-339.25 5.883z"/><path d="m138.333 279.631 3.744-.072-2.092-58.822-6.979.053z"/><path d="m223.583 220.104-6.651.05 2.971 57.904 4.119-.08z"/><path d="m158.093 220.6-6.109.046 2.998 58.664 3.318-.064z"/><path d="m203.431 220.256-5.965.045-1.139 58.202 3.71-.062z"/><path d="m181.016 220.426-4.388.033-3.921 58.509 6.724-.13z"/></g><path d="m904.291 248.743c-8.662 0-16.946-1.828-21.217-6.479-2.906-3.164-3.664-7.364-2.192-12.147.238-.774.685-2.669-.316-3.528-.597-.514-3.26-1.847-12.431 2.584-8.677 4.191-37.011 15.33-41.531 16.327-17.149 3.782-21.448-3.787-22.358-6.196-1.989-5.268 1.091-11.593 7.324-15.039 1.732-.958 4.134-2.141 6.914-3.509 6.214-3.058 14.723-7.246 17.604-10.104 5.314-5.271 7.882-11.171 6.868-15.781-.515-2.345-1.964-4.06-4.078-4.828-8.52-3.101-28.378 6.239-38.553 21.147-.468.687-1.401.857-2.085.394-.685-.468-.86-1.4-.394-2.085 11.381-16.674 32.319-25.812 42.057-22.276 3.069 1.116 5.25 3.669 5.983 7.005 1.234 5.619-1.639 12.556-7.686 18.555-3.229 3.203-11.637 7.342-18.393 10.666-2.746 1.352-5.117 2.519-6.788 3.442-4.916 2.719-7.426 7.494-5.969 11.354 1.432 3.791 7.149 6.917 18.905 4.326 4.034-.89 31.593-11.616 40.873-16.099 7.731-3.735 13.011-4.46 15.69-2.158 1.652 1.419 2.1 3.855 1.229 6.687-1.173 3.813-.671 6.834 1.534 9.235 5.583 6.08 20.591 6.644 32.528 4.056.813-.177 1.607.339 1.783 1.148s-.339 1.608-1.148 1.783c-4.419.958-9.346 1.521-14.155 1.521z" fill="#403838"/><circle cx="916.714" cy="227.261" fill="#403838" r="10.648"/><path d="m34.953 281.64 57.265-1.044-5.746 384.463-81.223-1.556z" fill="#403838"/><path d="m943.961 265.067-8.286 416.264 75.637 1.45-20.06-418.576z" fill="#403838"/><path d="m33.838 297.47c-.823 0-1.493-.664-1.5-1.488-.006-.828.66-1.505 1.488-1.512l959.037-7.415c.847-.027 1.505.66 1.512 1.488.006.828-.66 1.505-1.488 1.512l-959.037 7.415h-.012z" fill="#f9e7d7"/><path d="m862.966 398.681h-73.699v99.401h73.699c27.449 0 49.701-22.252 49.701-49.7s-22.252-49.7-49.701-49.7z" fill="#2b2929"/><path d="m1010.169 660.278h-.007l-1004.194-4.593c-.828-.004-1.497-.679-1.493-1.507.004-.826.675-1.493 1.5-1.493h.007l1004.194 4.593c.828.004 1.497.679 1.493 1.507-.004.826-.675 1.493-1.5 1.493z" fill="#f9e7d7"/><circle cx="559.139" cy="457.682" fill="#2b2929" r="264.332"/><circle cx="549.331" cy="448.381" fill="#f9e7d7" r="266.547"/><circle cx="549.331" cy="448.381" fill="#2b2929" r="241.812"/><circle cx="862.966" cy="448.381" fill="#eacaac" r="27.518" transform="matrix(.16017407 -.98708878 .98708878 .16017407 282.143 1228.382)"/><circle cx="549.331" cy="448.381" fill="#3591ba" r="194.125"/><circle cx="549.331" cy="448.381" fill="#5dace2" r="132.9"/><circle cx="549.331" cy="448.381" fill="#3591ba" r="42.542"/><path d="m569.995 82.065-22.398-1.195v38.614l25.534-.572z" fill="#ae75bc"/><path d="m505.512 120.426 35.32-.791v-39.126l-26.175-1.396z" fill="#ae75bc"/><path d="m605.917 118.178 29.387-.658-5.385-32.258-27.133-1.448z" fill="#ae75bc"/><path d="m502.861 78.483-23.568-1.257-15.934 44.144 35.722-.8z" fill="#ae75bc"/><path d="m598.136 83.566-15.142-.808-2.112 35.98 17.254-.386z" fill="#ae75bc"/><path d="m85.486 730.986.986-65.927-81.223-1.556-5.249 67.483z" fill="#d1ae8b"/><path d="m94.003 161.189-1.785 119.407-57.265 1.044 9.369-120.451z" fill="#eacaac"/><path d="m1011.312 682.781-75.637-1.45-.989 49.654h78.921z" fill="#d1ae8b"/><path d="m991.252 264.205-4.773-103.016h-40.45l-2.068 103.878z" fill="#eacaac"/><path d="m683.554 308.141c-6.073-5.814-12.527-11.231-19.314-16.223l-271.372 271.372c4.993 6.787 10.409 13.241 16.223 19.314z" fill="#5dace2"/><path d="m549.331 254.256c-6.999 0-13.908.379-20.715 1.101l-172.309 172.309c-.722 6.807-1.102 13.717-1.102 20.715 0 31.338 7.436 60.935 20.624 87.141l260.642-260.643c-26.205-13.188-55.803-20.623-87.141-20.623z" fill="#5dace2"/><path d="m549.331 315.481c-73.399 0-132.9 59.502-132.9 132.9 0 14.053 2.188 27.594 6.231 40.308l166.978-166.978c-12.714-4.042-26.255-6.231-40.308-6.231z" fill="#77c3ed"/><path d="m640.243 351.451c-6.157-5.777-12.863-10.974-20.034-15.504l-183.312 183.312c4.53 7.171 9.727 13.877 15.504 20.034z" fill="#77c3ed"/><path d="m655.755 554.805c-21.487 21.487-45.491 38.386-70.461 50.532-8.38 4.076-3.796 16.781 5.268 14.613 30.609-7.322 59.641-22.925 83.527-46.811 23.886-23.887 39.489-52.918 46.811-83.527 2.168-9.064-10.537-13.648-14.613-5.268-12.146 24.97-29.045 48.974-50.532 70.461z" fill="#5dace2"/></svg></g><!--ITEM: Upload 12--><g transform="translate(1751.5625 918.75) rotate(0.0 278.90625 89.0625)  scale(1.5896260558322979 1.5897914193657792)"><svg width="350.908" height="112.043" viewBox="0.0 0.0 350.908 112.043"><g>
	<path d="M0.853,0.847C12.885,15.336,27.256,18.83,37.949,19.524c22.166,54.979,87.015,70.864,109.142,74.821   c19.456,3.48,38.466,4.576,57.691,4.719c11.187,4.522,22.782,8.102,34.195,10.76c59.602,13.882,111.931-39.691,111.931-95.687   c0-4.469-0.341-8.905-0.97-13.29H0.853z" style="fill:#F8A036;"/>
	<path d="M136.695,92.186c-22.643-25.367-44.48-58.171-45.663-77.865c-14.829,1.497-29.481,4.807-44.377,5.286   c-2.429,0.078-5.39,0.132-8.705-0.083C57.285,67.481,109.09,85.691,136.695,92.186z" style="fill:#EF8D22;"/>
	<path d="M42.396,20.542c-10.279,0-27.842-1.857-42.2-19.149c-0.3-0.361-0.25-0.897,0.111-1.197   c0.361-0.3,0.897-0.249,1.197,0.111c16.095,19.384,36.44,18.729,45.124,18.45c9.022-0.29,18.131-1.652,26.94-2.971   c6.294-0.941,12.802-1.915,19.253-2.496c0.469-0.032,0.881,0.304,0.923,0.771c0.042,0.468-0.303,0.881-0.771,0.923   c-6.401,0.576-12.884,1.546-19.154,2.484c-8.857,1.325-18.016,2.695-27.137,2.988C45.463,20.495,44.019,20.542,42.396,20.542z" style="fill:#403838;"/>
	<path d="M147.093,95.196c-0.05,0-0.1-0.005-0.15-0.014C91.372,85.243,53.41,59.194,37.16,19.848   c-0.179-0.434,0.027-0.931,0.461-1.109c0.437-0.179,0.932,0.027,1.11,0.461c16.017,38.782,53.539,64.478,108.509,74.309   c0.462,0.083,0.77,0.524,0.688,0.986C147.855,94.907,147.496,95.196,147.093,95.196z" style="fill:#403838;"/>
</g>
</svg></g></svg>