<svg xmlns="http://www.w3.org/2000/svg"  viewBox="0 0 128 128" width="128px" height="128px"><path fill="#f7e1c6" d="M11.8,97l50.4,21.2c1.1,0.5,2.399,0.5,3.6,0l50.4-21.4c1.7-0.7,2.8-2.399,2.8-4.2V35.2 c0-1.8-1.1-3.5-2.8-4.2L65.8,9.8c-1.1-0.5-2.4-0.5-3.6,0L11.8,31.2C10.1,31.9,9,33.6,9,35.4v57.4C9,94.6,10.1,96.3,11.8,97"/><path fill="#c9b8a3" d="M118.119,33.099c-0.139,0-0.281,0.032-0.419,0.101l-53.9,23v58.3c0,1.591,1.266,2.739,2.69,2.739 c0.366,0,0.742-0.076,1.11-0.239l49.55-20.737C118.298,95.412,119,94.038,119,92.6V35.2c0-0.699-0.166-1.383-0.468-2 C118.407,33.135,118.265,33.099,118.119,33.099"/><path fill="#464c55" d="M117.3,28.2L66.9,7c-1.9-0.8-4-0.8-5.9,0L10.6,28.4c-2.8,1.2-4.6,4-4.6,7v57.4c0,3.1,1.8,5.8,4.6,7 L61.1,121c0.9,0.4,1.9,0.6,2.9,0.6s2-0.2,3-0.6l50.3-21.4c2.8-1.2,4.6-4,4.6-7V35.2C121.9,32.1,120.1,29.4,117.3,28.2z M63.4,12.5 c0.2-0.1,0.4-0.1,0.6-0.1s0.4,0,0.6,0.1l19.1,8L38,40c-0.5,0.2-1,0.5-1.4,0.8l-20-8.5L63.4,12.5z M13,94.3c-0.6-0.3-1-0.9-1-1.5 V36.9L33.5,46c0,0.3-0.1,0.7-0.1,1v6.1c0,1.7,1.3,3,3,3s3-1.3,3-3v-4.6l20.5,8.7c0.6,0.3,1,0.9,1,1.5l0.1,55.8L13,94.3z M115,94.1 l-48.1,20.4l-0.1-55.8c0-3.1-1.8-5.8-4.6-7L44,44l47.4-20.2l20.3,8.6l-21.5,9.4c-1.6,0.6-2.3,2.4-1.6,3.9c0.5,1.1,1.6,1.8,2.8,1.8 c0.4,0,0.8-0.1,1.2-0.2L116,36.9v55.7C116,93.3,115.6,93.9,115,94.1z"/></svg>